<?xml version="1.0" encoding="utf-8"?>
<!-- Generator: Adobe Illustrator 22.0.0, SVG Export Plug-In . SVG Version: 6.00 Build 0)  -->
<svg version="1.1" id="Layer_1" xmlns="http://www.w3.org/2000/svg" xmlns:xlink="http://www.w3.org/1999/xlink" x="0px" y="0px"
	 viewBox="0 0 585 130" style="enable-background:new 0 0 585 130;" xml:space="preserve">
<style type="text/css">
	.st0{fill:#22A1E0;}
</style>
<path class="st0" d="M39.8,68.3c9.1,6.5,18.3,13,27.4,19.5c0.1,0.1,0.2,0.2,0.4,0.1c0-0.1,0-0.2,0-0.3c0-7.2,0-14.3,0-21.5
	c0-0.4-0.2-0.6-0.4-0.8c-2.6-1.9-5.3-3.7-7.9-5.6c-1.2-0.8-2.4-1.7-3.6-2.6c4.3-2.8,8.5-5.5,12.7-8.3C49.9,35.7,31.5,22.6,13,9.3
	c0,0.9,0,1.7,0,2.6c0,6.4,0,12.8,0,19.2c0,0.4,0.1,0.7,0.5,0.9c1.1,0.8,2.2,1.6,3.3,2.4C24,39.6,31.4,44.8,38.6,50
	c3.3,2.3,6.6,4.7,9.9,7.1c-0.2,0.2-0.4,0.3-0.6,0.4c-2.7,1.7-5.3,3.5-8,5.2c-0.4,0.3-0.7,0.3-1.1,0C31.2,57.3,23.6,51.9,16,46.5
	c-1-0.7-2-1.4-3-2.1c0,0.2,0,0.2,0,0.3c0,7.4,0,14.8,0,22.2c0,0.4,0.2,0.6,0.5,0.8c2.8,2,5.7,4,8.5,6c0.5,0.3,0.4,0.5,0,0.8
	c-3.1,2-6.2,4.1-9.4,6.1c-0.6,0.4-1.1,0.7-1.7,1.1c-0.6,0.5-0.6,0.7,0,1.1c3,2.1,5.9,4.3,8.9,6.4c15.8,11.3,31.6,22.5,47.5,33.8
	c0.1,0.1,0.2,0.3,0.4,0.1c0,0,0,0,0-0.1c0-7.2,0-14.3,0-21.5c0-0.4-0.2-0.5-0.4-0.7c-1.7-1.2-3.5-2.4-5.2-3.6
	C52,90.2,41.9,83,31.8,75.8c-0.7-0.5-1.4-1-2.1-1.6c3.1-2.1,6.2-4,9.2-6C39.3,67.9,39.5,68.1,39.8,68.3z M38.5,44.9
	c-7.5-5.3-15-10.6-22.5-16c-0.4-0.3-0.5-0.5-0.5-1c0-3.7,0-7.4,0-11.1c0-0.2,0-0.4,0-0.7C30.8,27,46,37.8,61.3,48.7
	c-1.9,1.2-3.6,2.4-5.4,3.6c-1.1,0.7-2.1,1.4-3.2,2.1c-0.4,0.2-0.6,0.2-0.9,0C47.3,51.2,42.9,48.1,38.5,44.9z M49.2,61.4
	c0.8-0.5,1.7-1.1,2.5-1.6c0.3-0.2,0.5-0.2,0.8,0c4.1,2.9,8.2,5.9,12.3,8.8c0.2,0.1,0.4,0.3,0.4,0.6c0,4.1,0,8.1,0,12.3
	c-7.5-5.3-14.8-10.6-22.3-15.9C45,64.2,47.1,62.8,49.2,61.4z M64.7,104.1c0.2,0.2,0.4,0.3,0.4,0.7c0,3.9,0,7.7,0,11.6
	c0,0,0,0.1-0.1,0.2c-15.9-11.4-31.9-22.7-47.9-34.2c1.4-0.9,2.7-1.8,4-2.6c1.5-1,3.1-2,4.6-3c0.3-0.2,0.5-0.2,0.7,0
	C39.2,85.9,52,95,64.7,104.1z M26.5,71.5c-0.3,0.2-0.4,0.1-0.7-0.1c-3.3-2.4-6.7-4.8-10-7.1c-0.2-0.1-0.3-0.3-0.3-0.6
	c0-4.2,0-8.4,0-12.7c6.8,4.8,13.5,9.6,20.3,14.4C32.6,67.5,29.5,69.5,26.5,71.5z"/>
<g>
	<path d="M118.1,68.4c-1.3,0-2.3,0-3.5,0c0-8.1,0-16.1,0-24.2c1.1,0,2.2,0,3.4,0c0,2.4,0,4.8,0,6.9c2.3,0,4.5-0.2,6.6,0.1
		c2.6,0.4,4.3,2.4,4.4,5c0.1,4,0,8,0,12.1c-1.1,0-2.2,0-3.6,0c0-2.5,0-5,0-7.5c0-1.2,0-2.5-0.1-3.7c-0.1-1.4-0.8-2.7-2.2-2.8
		c-1.6-0.1-3.3,0.3-4.9,0.6c-0.2,0-0.3,0.9-0.3,1.5C118.1,60.4,118.1,64.3,118.1,68.4z"/>
	<path d="M136.5,61.3c0.8,1.2,1.3,2.7,2.4,3.4c1.1,0.7,2.6,0.9,4,0.9s2.9-0.5,4.3-0.7c1,3,1,3.1-2,3.6c-1.5,0.3-3.2,0.4-4.7,0.3
		c-5.3-0.4-8.3-5.1-7.3-11c0.9-5.1,5-7.8,10-6.7c2.8,0.7,4.4,2.5,4.9,5.2c0.3,1.3,0,2.8,0,4.4c-3.7,0-7.4,0-11.1,0
		C136.9,60.9,136.7,61.1,136.5,61.3z M144.7,58.4c0-2.9-1.1-4.3-3.3-4.4c-2.5-0.1-4,1.4-4.3,4.4c0.7,0,1.3,0,1.9,0
		C140.8,58.4,142.7,58.4,144.7,58.4z"/>
	<path d="M100.8,48c-2.4,0-4.5,0-6.7,0c0-1.1,0-2.1,0-3.2c5.6,0,11.2,0,16.9,0c0,1,0,2,0,3.1c-2.2,0-4.3,0-6.6,0
		c0,6.9,0,13.6,0,20.4c-1.3,0-2.4,0-3.6,0C100.8,61.7,100.8,55,100.8,48z"/>
</g>
<path d="M188.6,67.8c4.8,2.5,6.8,6.3,6.9,11.2c0.1,7.1-3.4,12.2-10.5,13.1c-7.1,1-14.4,0.9-21.9,1.2c0-16.4,0-32.1,0-48.3
	c7.9,0,15.8-1,23.6,1.6C195,49.6,196.3,62.1,188.6,67.8z M170.4,86.7c4.1-0.3,8-0.4,11.8-0.9c3.9-0.6,5.7-3,5.8-6.6
	c0-3.5-1.9-6.3-5.5-6.9c-3.9-0.6-8-0.6-12.1-0.9C170.4,76.7,170.4,81.4,170.4,86.7z M170.4,66c3.9-0.3,7.4-0.3,10.7-0.8
	c3.5-0.6,4.8-3.2,4.9-6.5c0.2-3.4-1.5-5.6-4.7-6.2c-3.5-0.7-7.2-0.8-11-1.1C170.4,56.4,170.4,60.9,170.4,66z"/>
<path d="M361.4,104.8c0.7-2.9,1.1-4.7,1.5-6.5c15.8,1.9,19.6,0.3,18.6-7.4c-4.3,0-8.5,0.5-12.7-0.1c-4.1-0.6-6.9-3.5-8.7-7.3
	c-6.1-12.9,2.2-26.1,16.3-26.2c0.6,0,1.2,0,1.8,0.1c10.1,0.6,10.9,1.5,10.9,11.3c0,7.6,0,15.3,0,22.9c-0.1,8.6-5,14-13.6,14.2
	C371,106,366.5,105.2,361.4,104.8z M381.8,74.2c0-2.5,0.1-5-0.1-7.5c-0.1-0.8-0.8-2-1.5-2.3c-3.7-1.7-8.9-0.6-11.6,2.3
	c-3,3.3-3.6,10-1.3,14.1c2.1,3.6,5.9,5.1,10.5,4.2c2.6-0.5,4.3-1.6,3.9-4.8C381.6,78.3,381.8,76.2,381.8,74.2z"/>
<path d="M320.1,92.9c-2.8,0-5.1,0-8.2,0C316,81,320,69.4,324.1,57.8c1-2.8,2.2-5.5,3.4-8.3c2-4.7,3.8-5.6,8.7-4.5
	c0.7,0.2,1.6,1,1.9,1.7c5.8,15.1,11.5,30.3,17.4,46c-3.6,0-6,0-8.7,0c-0.9-2.9-2-6-2.7-9.1c-0.5-2.2-1.5-3.1-3.9-3
	c-4.5,0.2-9.1,0.2-13.6,0c-2.3-0.1-3.1,0.8-3.6,2.9C322.2,86.7,321.1,89.7,320.1,92.9z M341.1,74c-2.5-7-4.9-13.5-7.2-19.9
	c-0.3,0-0.6,0-0.9,0c-2.4,6.6-4.7,13.1-7.2,20C331.2,74,335.8,74,341.1,74z"/>
<path d="M425.9,85.8c1.8,6.1,1.9,6.3-4.1,7.3c-3.1,0.5-6.4,0.8-9.6,0.5c-10.7-1-16.7-10.4-14.6-22.4c1.8-10.2,10.3-15.8,20.3-13.3
	c4.7,1.1,7.9,4.1,9.2,8.7c0.9,3.3,0.9,6.9,1.3,10.9c-8.3,0-15.7,0-23.2,0C405.6,86.3,410.1,88.1,425.9,85.8z M420.7,72.3
	c0-5.4-2.1-8.4-6.2-8.7c-5.2-0.4-8.4,2.6-9.2,8.7C410.3,72.3,415.4,72.3,420.7,72.3z"/>
<path d="M209.4,77.3c0.5,9.3,5.5,11.2,20.5,8.4c2.5,5.4,2.2,6.3-3.5,7.3c-3.3,0.6-6.7,0.8-10,0.6c-10.8-0.9-16.7-10.4-14.6-22.8
	c1.7-9.8,10.4-15.4,20.2-13c7.8,1.9,11.9,10.1,9.7,19.5C224.4,77.3,216.9,77.3,209.4,77.3z M225,72.2c-0.3-6.3-2.9-9.1-8-8.7
	c-4.5,0.3-7.5,4-7.1,8.7C214.9,72.2,220,72.2,225,72.2z"/>
<path d="M282.6,73c0-9.1-3.3-10.6-16.8-7.9c-0.5-1.7-1-3.5-1.6-5.6c6.3-2.3,12.6-3.3,18.9-0.8c3.7,1.5,6.1,4.5,6.3,8.4
	c0.4,7.4,0.4,14.8,0.5,22.2c0,0.8-1,1.9-1.8,2.2c-6,2.5-12.3,3.1-18.6,1.4c-4.7-1.2-7.3-4.9-7.4-9.4c-0.1-4.8,2.4-8.4,7.1-9.9
	c2.1-0.7,4.4-0.9,6.7-1C278,72.5,280.2,72.8,282.6,73z M282.7,82.9c0-5.1-0.1-5.2-5.5-5.2c-5.2,0-7.8,1.8-7.7,5.4
	c0.1,3.2,2.5,5,6.9,5C281.7,88.1,282.7,87.3,282.7,82.9z"/>
<path d="M522.6,84.9c2.4-8.7,4.9-17.3,7.5-26.5c1.4,0,3.5,0,6.7,0c-1.2,5-2,9.9-3.4,14.5c-3,9.5-6.7,18.7-13.7,26.1
	c-3.6,3.8-7.9,6-12.3,6.2c-0.4-1.8-0.8-3.6-1.3-5.8c4.7-1.4,8.9-3.5,11.5-8.2c-6.9-9.8-11.2-20.6-12.2-32.9c2.4,0,4.7,0,7.2,0
	c1.1,9.5,3.8,18.4,8.9,26.5C521.8,84.8,522.2,84.8,522.6,84.9z"/>
<path d="M465.8,92.9c-2.5,0-4.6,0-7.1,0c0-6.6,0-13,0-19.4c0-8.4-4.1-11.4-12.2-9.2c-2.1,0.6-3.1,1.5-3,3.9
	c0.2,8.1,0.1,16.2,0.1,24.6c-2.4,0-4.6,0-7.4,0c0-2,0-4.1,0-6.2c0-7.8,0.1-15.5,0-23.3c0-2.2,0.7-3.3,2.7-3.9
	c5.8-1.8,11.6-2.8,17.6-1.5c5.2,1.2,9,4.9,9.3,10.1C466.1,76.2,465.8,84.4,465.8,92.9z"/>
<path d="M501,59.7c-0.5,1.9-0.9,3.5-1.4,5.5c-6.1-1.5-12.4-3.9-16.4,3c-2.9,4.9-3,10.6,0.3,15.3c4.3,6.1,10.5,4,16.5,2.2
	c0.4,2.1,0.8,3.9,1.2,5.6c-8,4.2-18.4,2.8-23.3-3c-5.3-6.3-5.5-18.4-0.4-25.1C482.3,57,492,55.5,501,59.7z"/>
<path d="M256.9,64.3c-2.8,0-5.3,0-7.8,0c0,6.6-0.1,12.9,0.1,19.2c0.1,2.6,1.9,4,4.6,4c1.3,0,2.6,0,3.9,0c1.5,5.8,1.1,6.3-4.6,6.3
	c-7.6,0.1-11.3-3.4-11.6-11.4c-0.2-5.9,0-11.9,0-18c-1.7-0.1-3.1-0.3-4.7-0.4c0-1.9,0-3.6,0-5.7c1.4-0.2,2.8-0.3,4.5-0.5
	c0.1-2.4,0.2-4.8,0.4-7.6c2.3-0.1,4.4-0.2,6.9-0.4c0.2,2.7,0.3,5.2,0.5,8.1c2.7,0,5.2,0,7.9,0C256.9,60.1,256.9,61.9,256.9,64.3z"/>
</svg>
